<?xml version="1.0" encoding="UTF-8"?>
<svg width="531px" height="451px" viewBox="0 0 531 451" version="1.1" xmlns="http://www.w3.org/2000/svg" xmlns:xlink="http://www.w3.org/1999/xlink">
    <title>mech-fan</title>
    <g id="Page-1" stroke="none" stroke-width="1" fill="none" fill-rule="evenodd">
        <g id="mech-fan" fill="#000000" fill-rule="nonzero">
            <g id="home-alert-outline">
                <path d="M265.5,71.6294118 L398.25,191.011765 L398.25,397.941176 L132.75,397.941176 L132.75,191.011765 L265.5,71.6294118 M451.35,451 L451.35,238.764706 L531,238.764706 L265.5,0 L0,238.764706 L79.65,238.764706 L79.65,451" id="Shape"></path>
            </g>
            <g id="fan" transform="translate(159.000000, 159.000000)">
                <path d="M105.841238,95.4 C99.995788,95.4 95.2571143,100.145782 95.2571143,106 C95.2571143,111.854218 99.995788,116.6 105.841238,116.6 C111.686688,116.6 116.425362,111.854218 116.425362,106 C116.425362,100.145782 111.686688,95.4 105.841238,95.4 M111.1333,0 C158.761857,0 159.926111,37.842 134.947579,50.35 C124.469296,55.544 119.812282,66.674 117.801298,76.532 C122.881677,78.652 127.327009,81.938 130.713929,86.178 C169.875187,64.978 212,73.352 212,111.3 C212,159 174.214678,160.06 161.725412,134.938 C156.43335,124.444 145.214179,119.78 135.370944,117.766 C133.254119,122.854 129.97304,127.2 125.739391,130.804 C146.801797,169.918 138.440339,212 100.549176,212 C52.9206191,212 51.9680479,174.052 76.9465801,161.544 C87.3190215,156.35 91.9760359,145.326 94.0928607,135.574 C88.90664,133.454 84.3554668,130.062 80.9685472,125.822 C41.9131303,146.81 0,138.542 0,100.7 C0,53 37.6794808,51.834 50.1687469,76.956 C55.4608088,87.45 66.5741388,92.008 76.4173739,94.022 C78.4283575,88.934 81.8152771,84.482 86.1547678,81.09 C65.0923615,41.976 73.4538193,0 111.1333,0 Z" id="Shape"></path>
            </g>
        </g>
    </g>
</svg>